<svg version="1.2" baseProfile="tiny-ps" xmlns="http://www.w3.org/2000/svg" viewBox="0 0 1144 618" width="1144" height="618">
	<title>developerActivity-svg</title>
	<style>
		tspan { white-space:pre }
		.shp0 { opacity: 0.102;fill: #6c63ff } 
		.shp1 { opacity: 0.2;fill: #6c63ff } 
		.shp2 { fill: #6c63ff } 
		.shp3 { opacity: 0.702;fill: #6c63ff } 
		.shp4 { opacity: 0.4;fill: #6c63ff } 
		.shp5 { fill: #767d9f } 
		.shp6 { fill: #efb7b9 } 
		.shp7 { fill: #4c4981 } 
		.shp8 { fill: #504f60 } 
		.shp9 { fill: #9c9ca1 } 
		.shp10 { opacity: 0.051;fill: #000000 } 
		.shp11 { opacity: 0.102;fill: #000000 } 
		.shp12 { fill: #ffffff } 
		.shp13 { opacity: 0.102;fill: #000000;stroke: #4c4981 } 
		.shp14 { fill: #cfbf73 } 
	</style>
	<path id="Layer" class="shp0" d="M1144 396.23C1144 400.42 1143.86 404.6 1143.58 408.78C1143.29 412.95 1142.86 417.12 1142.29 421.27C1141.72 425.41 1141 429.54 1140.14 433.64C1139.29 437.73 1138.29 441.8 1137.15 445.83C1136.05 449.71 1134.82 453.56 1133.46 457.36C1132.1 461.16 1130.62 464.92 1129.01 468.62C1127.4 472.32 1125.66 475.97 1123.8 479.55C1121.95 483.14 1119.97 486.66 1117.88 490.11C1117.88 540.21 1084.06 583.51 1034.97 604.11C1029.86 606.23 1024.64 608.1 1019.35 609.71C1014.05 611.32 1008.67 612.66 1003.24 613.73C997.81 614.81 992.33 615.61 986.82 616.14C981.31 616.67 975.78 616.93 970.24 616.91L217.17 616.91C176.92 616.91 139.62 606.05 109.03 587.55C106.84 586.23 104.68 584.87 102.55 583.47C100.42 582.06 98.32 580.61 96.25 579.12C94.17 577.62 92.13 576.09 90.13 574.51C88.12 572.94 86.14 571.32 84.2 569.66C50.2 540.44 29.12 500.06 29.12 455.46C24.38 448.16 20.18 440.53 16.54 432.63C12.9 424.72 9.84 416.57 7.37 408.22C4.91 399.87 3.06 391.36 1.82 382.75C0.59 374.13 -0.02 365.44 0 356.74C0 283.38 43.39 220.3 105.55 192.45C107.61 191.53 109.69 190.64 111.79 189.8C113.89 188.96 116 188.16 118.13 187.39C120.26 186.63 122.4 185.91 124.55 185.24C126.71 184.56 128.88 183.92 131.06 183.33C134.15 182.49 137.27 181.74 140.42 181.07C142.52 180.62 144.63 180.21 146.74 179.84C148.86 179.47 150.98 179.14 153.11 178.85C155.24 178.56 157.37 178.31 159.51 178.09C161.65 177.88 163.79 177.7 165.93 177.57C169.03 177.38 172.15 177.27 175.28 177.24L177 177.24C180.46 177.24 183.89 177.36 187.3 177.56L188.42 175.66C189.79 173.37 191.2 171.1 192.64 168.85C195.24 164.76 197.97 160.72 200.82 156.75C203.81 152.56 206.92 148.43 210.17 144.37L211 143.37C212.84 141.08 214.72 138.81 216.64 136.57C222.64 129.58 228.97 122.79 235.64 116.22C307.75 45.54 420.72 0.04 547.72 0.04C646.54 0.04 736.87 27.59 806.06 73.11C812.58 69.42 819.33 66.16 826.27 63.34C833.21 60.52 840.32 58.15 847.57 56.24C854.81 54.34 862.17 52.9 869.6 51.95C877.03 50.99 884.51 50.51 892 50.52C989.74 50.52 1069 130.89 1069 230.03C1069 231.6 1068.97 233.17 1068.93 234.73C1068.89 236.3 1068.82 237.87 1068.74 239.43C1068.66 241 1068.55 242.56 1068.43 244.13C1068.31 245.69 1068.16 247.25 1068 248.81C1079.74 257.12 1090.44 266.8 1099.87 277.66C1109.3 288.52 1117.4 300.46 1123.99 313.24C1130.58 326.03 1135.62 339.55 1138.99 353.53C1142.36 367.51 1144.04 381.85 1144 396.23Z" />
	<path id="Layer" class="shp1" d="M235.66 116.18L235.66 136.53L216.66 136.53C222.61 129.54 228.95 122.76 235.66 116.18Z" />
	<path id="Layer" class="shp1" d="M245.02 111.02L270.53 111.02L270.53 136.53L245.02 136.53L245.02 111.02Z" />
	<path id="Layer" class="shp1" d="M279.88 111.02L305.39 111.02L305.39 136.53L279.88 136.53L279.88 111.02Z" />
	<path id="Layer" class="shp1" d="M314.75 111.02L340.26 111.02L340.26 136.53L314.75 136.53L314.75 111.02Z" />
	<path id="Layer" class="shp1" d="M349.61 111.02L375.12 111.02L375.12 136.53L349.61 136.53L349.61 111.02Z" />
	<path id="Layer" class="shp1" d="M384.48 111.02L409.99 111.02L409.99 136.53L384.48 136.53L384.48 111.02Z" />
	<path id="Layer" class="shp2" d="M419.35 111.02L444.86 111.02L444.86 136.53L419.35 136.53L419.35 111.02Z" />
	<path id="Layer" class="shp1" d="M454.21 111.02L479.72 111.02L479.72 136.53L454.21 136.53L454.21 111.02Z" />
	<path id="Layer" class="shp1" d="M489.08 111.02L514.59 111.02L514.59 136.53L489.08 136.53L489.08 111.02Z" />
	<path id="Layer" class="shp1" d="M523.94 111.02L549.45 111.02L549.45 136.53L523.94 136.53L523.94 111.02Z" />
	<path id="Layer" class="shp2" d="M558.81 111.02L584.32 111.02L584.32 136.53L558.81 136.53L558.81 111.02Z" />
	<path id="Layer" class="shp1" d="M593.68 111.02L619.19 111.02L619.19 136.53L593.68 136.53L593.68 111.02Z" />
	<path id="Layer" class="shp1" d="M628.54 111.02L654.05 111.02L654.05 136.53L628.54 136.53L628.54 111.02Z" />
	<path id="Layer" class="shp1" d="M663.41 111.02L688.92 111.02L688.92 136.53L663.41 136.53L663.41 111.02Z" />
	<path id="Layer" class="shp1" d="M698.28 111.02L723.79 111.02L723.79 136.53L698.28 136.53L698.28 111.02Z" />
	<path id="Layer" class="shp1" d="M733.14 111.02L758.65 111.02L758.65 136.53L733.14 136.53L733.14 111.02Z" />
	<path id="Layer" class="shp1" d="M768.01 111.02L793.52 111.02L793.52 136.53L768.01 136.53L768.01 111.02Z" />
	<path id="Layer" class="shp2" d="M802.87 111.02L828.38 111.02L828.38 136.53L802.87 136.53L802.87 111.02Z" />
	<path id="Layer" class="shp2" d="M837.74 111.02L863.25 111.02L863.25 136.53L837.74 136.53L837.74 111.02Z" />
	<path id="Layer" class="shp1" d="M872.61 111.02L898.12 111.02L898.12 136.53L872.61 136.53L872.61 111.02Z" />
	<path id="Layer" class="shp1" d="M907.47 111.02L932.98 111.02L932.98 136.53L907.47 136.53L907.47 111.02Z" />
	<path id="Layer" class="shp2" d="M942.34 111.02L967.85 111.02L967.85 136.53L942.34 136.53L942.34 111.02Z" />
	<path id="Layer" class="shp2" d="M977.2 111.02L1002.71 111.02L1002.71 136.53L977.2 136.53L977.2 111.02Z" />
	<path id="Layer" class="shp2" d="M200.8 156.74L200.8 168.84L192.62 168.84C195.22 164.72 197.95 160.69 200.8 156.74Z" />
	<path id="Layer" class="shp1" d="M210.15 143.33L235.66 143.33L235.66 168.84L210.15 168.84L210.15 143.33Z" />
	<path id="Layer" class="shp2" d="M245.02 143.33L270.53 143.33L270.53 168.84L245.02 168.84L245.02 143.33Z" />
	<path id="Layer" class="shp1" d="M279.88 143.33L305.39 143.33L305.39 168.84L279.88 168.84L279.88 143.33Z" />
	<path id="Layer" class="shp3" d="M314.75 143.33L340.26 143.33L340.26 168.84L314.75 168.84L314.75 143.33Z" />
	<path id="Layer" class="shp1" d="M349.61 143.33L375.12 143.33L375.12 168.84L349.61 168.84L349.61 143.33Z" />
	<path id="Layer" class="shp4" d="M384.48 143.33L409.99 143.33L409.99 168.84L384.48 168.84L384.48 143.33Z" />
	<path id="Layer" class="shp2" d="M419.35 143.33L444.86 143.33L444.86 168.84L419.35 168.84L419.35 143.33Z" />
	<path id="Layer" class="shp4" d="M454.21 143.33L479.72 143.33L479.72 168.84L454.21 168.84L454.21 143.33Z" />
	<path id="Layer" class="shp1" d="M489.08 143.33L514.59 143.33L514.59 168.84L489.08 168.84L489.08 143.33Z" />
	<path id="Layer" class="shp4" d="M523.94 143.33L549.45 143.33L549.45 168.84L523.94 168.84L523.94 143.33Z" />
	<path id="Layer" class="shp2" d="M558.81 143.33L584.32 143.33L584.32 168.84L558.81 168.84L558.81 143.33Z" />
	<path id="Layer" class="shp4" d="M593.68 143.33L619.19 143.33L619.19 168.84L593.68 168.84L593.68 143.33Z" />
	<path id="Layer" class="shp4" d="M628.54 143.33L654.05 143.33L654.05 168.84L628.54 168.84L628.54 143.33Z" />
	<path id="Layer" class="shp1" d="M663.41 143.33L688.92 143.33L688.92 168.84L663.41 168.84L663.41 143.33Z" />
	<path id="Layer" class="shp4" d="M698.28 143.33L723.79 143.33L723.79 168.84L698.28 168.84L698.28 143.33Z" />
	<path id="Layer" class="shp4" d="M733.14 143.33L758.65 143.33L758.65 168.84L733.14 168.84L733.14 143.33Z" />
	<path id="Layer" class="shp1" d="M768.01 143.33L793.52 143.33L793.52 168.84L768.01 168.84L768.01 143.33Z" />
	<path id="Layer" class="shp1" d="M802.87 143.33L828.38 143.33L828.38 168.84L802.87 168.84L802.87 143.33Z" />
	<path id="Layer" class="shp4" d="M837.74 143.33L863.25 143.33L863.25 168.84L837.74 168.84L837.74 143.33Z" />
	<path id="Layer" class="shp1" d="M872.61 143.33L898.12 143.33L898.12 168.84L872.61 168.84L872.61 143.33Z" />
	<path id="Layer" class="shp2" d="M907.47 143.33L932.98 143.33L932.98 168.84L907.47 168.84L907.47 143.33Z" />
	<path id="Layer" class="shp2" d="M942.34 143.33L967.85 143.33L967.85 168.84L942.34 168.84L942.34 143.33Z" />
	<path id="Layer" class="shp2" d="M977.2 143.33L1002.71 143.33L1002.71 168.84L977.2 168.84L977.2 143.33Z" />
	<path id="Layer" class="shp1" d="M131.06 183.33L131.06 201.16L105.55 201.16L105.55 192.45C107.61 191.53 109.69 190.64 111.79 189.8C113.89 188.96 116 188.16 118.13 187.39C120.26 186.63 122.4 185.91 124.55 185.24C126.71 184.56 128.88 183.92 131.06 183.33Z" />
	<path id="Layer" class="shp1" d="M165.93 177.57L165.93 201.16L140.42 201.16L140.42 181.07L165.93 177.57L165.93 177.57Z" />
	<path id="Layer" class="shp2" d="M175.28 175.65L200.79 175.65L200.79 201.16L175.28 201.16L175.28 175.65Z" />
	<path id="Layer" class="shp3" d="M210.15 175.65L235.66 175.65L235.66 201.16L210.15 201.16L210.15 175.65Z" />
	<path id="Layer" class="shp2" d="M245.02 175.65L270.53 175.65L270.53 201.16L245.02 201.16L245.02 175.65Z" />
	<path id="Layer" class="shp3" d="M279.88 175.65L305.39 175.65L305.39 201.16L279.88 201.16L279.88 175.65Z" />
	<path id="Layer" class="shp3" d="M314.75 175.65L340.26 175.65L340.26 201.16L314.75 201.16L314.75 175.65Z" />
	<path id="Layer" class="shp1" d="M349.61 175.65L375.12 175.65L375.12 201.16L349.61 201.16L349.61 175.65Z" />
	<path id="Layer" class="shp4" d="M384.48 175.65L409.99 175.65L409.99 201.16L384.48 201.16L384.48 175.65Z" />
	<path id="Layer" class="shp4" d="M419.35 175.65L444.86 175.65L444.86 201.16L419.35 201.16L419.35 175.65Z" />
	<path id="Layer" class="shp2" d="M454.21 175.65L479.72 175.65L479.72 201.16L454.21 201.16L454.21 175.65Z" />
	<path id="Layer" class="shp1" d="M489.08 175.65L514.59 175.65L514.59 201.16L489.08 201.16L489.08 175.65Z" />
	<path id="Layer" class="shp4" d="M523.94 175.65L549.45 175.65L549.45 201.16L523.94 201.16L523.94 175.65Z" />
	<path id="Layer" class="shp2" d="M558.81 175.65L584.32 175.65L584.32 201.16L558.81 201.16L558.81 175.65Z" />
	<path id="Layer" class="shp1" d="M593.68 175.65L619.19 175.65L619.19 201.16L593.68 201.16L593.68 175.65Z" />
	<path id="Layer" class="shp4" d="M628.54 175.65L654.05 175.65L654.05 201.16L628.54 201.16L628.54 175.65Z" />
	<path id="Layer" class="shp1" d="M663.41 175.65L688.92 175.65L688.92 201.16L663.41 201.16L663.41 175.65Z" />
	<path id="Layer" class="shp2" d="M698.28 175.65L723.79 175.65L723.79 201.16L698.28 201.16L698.28 175.65Z" />
	<path id="Layer" class="shp1" d="M733.14 175.65L758.65 175.65L758.65 201.16L733.14 201.16L733.14 175.65Z" />
	<path id="Layer" class="shp3" d="M768.01 175.65L793.52 175.65L793.52 201.16L768.01 201.16L768.01 175.65Z" />
	<path id="Layer" class="shp3" d="M802.87 175.65L828.38 175.65L828.38 201.16L802.87 201.16L802.87 175.65Z" />
	<path id="Layer" class="shp4" d="M837.74 175.65L863.25 175.65L863.25 201.16L837.74 201.16L837.74 175.65Z" />
	<path id="Layer" class="shp1" d="M872.61 175.65L898.12 175.65L898.12 201.16L872.61 201.16L872.61 175.65Z" />
	<path id="Layer" class="shp2" d="M907.47 175.65L932.98 175.65L932.98 201.16L907.47 201.16L907.47 175.65Z" />
	<path id="Layer" class="shp2" d="M942.34 175.65L967.85 175.65L967.85 201.16L942.34 201.16L942.34 175.65Z" />
	<path id="Layer" class="shp2" d="M977.2 175.65L1002.71 175.65L1002.71 201.16L977.2 201.16L977.2 175.65Z" />
	<path id="Layer" class="shp1" d="M105.55 207.96L131.06 207.96L131.06 233.47L105.55 233.47L105.55 207.96Z" />
	<path id="Layer" class="shp1" d="M140.42 207.96L165.93 207.96L165.93 233.47L140.42 233.47L140.42 207.96Z" />
	<path id="Layer" class="shp1" d="M175.28 207.96L200.79 207.96L200.79 233.47L175.28 233.47L175.28 207.96Z" />
	<path id="Layer" class="shp1" d="M210.15 207.96L235.66 207.96L235.66 233.47L210.15 233.47L210.15 207.96Z" />
	<path id="Layer" class="shp2" d="M245.02 207.96L270.53 207.96L270.53 233.47L245.02 233.47L245.02 207.96Z" />
	<path id="Layer" class="shp3" d="M279.88 207.96L305.39 207.96L305.39 233.47L279.88 233.47L279.88 207.96Z" />
	<path id="Layer" class="shp3" d="M314.75 207.96L340.26 207.96L340.26 233.47L314.75 233.47L314.75 207.96Z" />
	<path id="Layer" class="shp1" d="M349.61 207.96L375.12 207.96L375.12 233.47L349.61 233.47L349.61 207.96Z" />
	<path id="Layer" class="shp1" d="M384.48 207.96L409.99 207.96L409.99 233.47L384.48 233.47L384.48 207.96Z" />
	<path id="Layer" class="shp4" d="M419.35 207.96L444.86 207.96L444.86 233.47L419.35 233.47L419.35 207.96Z" />
	<path id="Layer" class="shp4" d="M454.21 207.96L479.72 207.96L479.72 233.47L454.21 233.47L454.21 207.96Z" />
	<path id="Layer" class="shp2" d="M489.08 207.96L514.59 207.96L514.59 233.47L489.08 233.47L489.08 207.96Z" />
	<path id="Layer" class="shp1" d="M523.94 207.96L549.45 207.96L549.45 233.47L523.94 233.47L523.94 207.96Z" />
	<path id="Layer" class="shp4" d="M558.81 207.96L584.32 207.96L584.32 233.47L558.81 233.47L558.81 207.96Z" />
	<path id="Layer" class="shp4" d="M593.68 207.96L619.19 207.96L619.19 233.47L593.68 233.47L593.68 207.96Z" />
	<path id="Layer" class="shp4" d="M628.54 207.96L654.05 207.96L654.05 233.47L628.54 233.47L628.54 207.96Z" />
	<path id="Layer" class="shp4" d="M663.41 207.96L688.92 207.96L688.92 233.47L663.41 233.47L663.41 207.96Z" />
	<path id="Layer" class="shp1" d="M698.28 207.96L723.79 207.96L723.79 233.47L698.28 233.47L698.28 207.96Z" />
	<path id="Layer" class="shp1" d="M733.14 207.96L758.65 207.96L758.65 233.47L733.14 233.47L733.14 207.96Z" />
	<path id="Layer" class="shp1" d="M768.01 207.96L793.52 207.96L793.52 233.47L768.01 233.47L768.01 207.96Z" />
	<path id="Layer" class="shp1" d="M802.87 207.96L828.38 207.96L828.38 233.47L802.87 233.47L802.87 207.96Z" />
	<path id="Layer" class="shp3" d="M837.74 207.96L863.25 207.96L863.25 233.47L837.74 233.47L837.74 207.96Z" />
	<path id="Layer" class="shp3" d="M872.61 207.96L898.12 207.96L898.12 233.47L872.61 233.47L872.61 207.96Z" />
	<path id="Layer" class="shp4" d="M907.47 207.96L932.98 207.96L932.98 233.47L907.47 233.47L907.47 207.96Z" />
	<path id="Layer" class="shp1" d="M942.34 207.96L967.85 207.96L967.85 233.47L942.34 233.47L942.34 207.96Z" />
	<path id="Layer" class="shp2" d="M977.2 207.96L1002.71 207.96L1002.71 233.47L977.2 233.47L977.2 207.96Z" />
	<path id="Layer" class="shp1" d="M105.55 240.28L131.06 240.28L131.06 265.79L105.55 265.79L105.55 240.28Z" />
	<path id="Layer" class="shp1" d="M140.42 240.28L165.93 240.28L165.93 265.79L140.42 265.79L140.42 240.28Z" />
	<path id="Layer" class="shp4" d="M175.28 240.28L200.79 240.28L200.79 265.79L175.28 265.79L175.28 240.28Z" />
	<path id="Layer" class="shp1" d="M210.15 240.28L235.66 240.28L235.66 265.79L210.15 265.79L210.15 240.28Z" />
	<path id="Layer" class="shp1" d="M245.02 240.28L270.53 240.28L270.53 265.79L245.02 265.79L245.02 240.28Z" />
	<path id="Layer" class="shp3" d="M279.88 240.28L305.39 240.28L305.39 265.79L279.88 265.79L279.88 240.28Z" />
	<path id="Layer" class="shp3" d="M314.75 240.28L340.26 240.28L340.26 265.79L314.75 265.79L314.75 240.28Z" />
	<path id="Layer" class="shp1" d="M349.61 240.28L375.12 240.28L375.12 265.79L349.61 265.79L349.61 240.28Z" />
	<path id="Layer" class="shp1" d="M384.48 240.28L409.99 240.28L409.99 265.79L384.48 265.79L384.48 240.28Z" />
	<path id="Layer" class="shp4" d="M419.35 240.28L444.86 240.28L444.86 265.79L419.35 265.79L419.35 240.28Z" />
	<path id="Layer" class="shp2" d="M454.21 240.28L479.72 240.28L479.72 265.79L454.21 265.79L454.21 240.28Z" />
	<path id="Layer" class="shp1" d="M489.08 240.28L514.59 240.28L514.59 265.79L489.08 265.79L489.08 240.28Z" />
	<path id="Layer" class="shp2" d="M523.94 240.28L549.45 240.28L549.45 265.79L523.94 265.79L523.94 240.28Z" />
	<path id="Layer" class="shp2" d="M558.81 240.28L584.32 240.28L584.32 265.79L558.81 265.79L558.81 240.28Z" />
	<path id="Layer" class="shp2" d="M593.68 240.28L619.19 240.28L619.19 265.79L593.68 265.79L593.68 240.28Z" />
	<path id="Layer" class="shp1" d="M628.54 240.28L654.05 240.28L654.05 265.79L628.54 265.79L628.54 240.28Z" />
	<path id="Layer" class="shp2" d="M663.41 240.28L688.92 240.28L688.92 265.79L663.41 265.79L663.41 240.28Z" />
	<path id="Layer" class="shp1" d="M698.28 240.28L723.79 240.28L723.79 265.79L698.28 265.79L698.28 240.28Z" />
	<path id="Layer" class="shp1" d="M733.14 240.28L758.65 240.28L758.65 265.79L733.14 265.79L733.14 240.28Z" />
	<path id="Layer" class="shp1" d="M768.01 240.28L793.52 240.28L793.52 265.79L768.01 265.79L768.01 240.28Z" />
	<path id="Layer" class="shp1" d="M802.87 240.28L828.38 240.28L828.38 265.79L802.87 265.79L802.87 240.28Z" />
	<path id="Layer" class="shp1" d="M837.74 240.28L863.25 240.28L863.25 265.79L837.74 265.79L837.74 240.28Z" />
	<path id="Layer" class="shp3" d="M872.61 240.28L898.12 240.28L898.12 265.79L872.61 265.79L872.61 240.28Z" />
	<path id="Layer" class="shp1" d="M907.47 240.28L932.98 240.28L932.98 265.79L907.47 265.79L907.47 240.28Z" />
	<path id="Layer" class="shp1" d="M942.34 240.28L967.85 240.28L967.85 265.79L942.34 265.79L942.34 240.28Z" />
	<path id="Layer" class="shp2" d="M977.2 240.28L1002.71 240.28L1002.71 265.79L977.2 265.79L977.2 240.28Z" />
	<path id="Layer" class="shp1" d="M105.55 272.59L131.06 272.59L131.06 298.1L105.55 298.1L105.55 272.59Z" />
	<path id="Layer" class="shp1" d="M140.42 272.59L165.93 272.59L165.93 298.1L140.42 298.1L140.42 272.59Z" />
	<path id="Layer" class="shp1" d="M175.28 272.59L200.79 272.59L200.79 298.1L175.28 298.1L175.28 272.59Z" />
	<path id="Layer" class="shp4" d="M210.15 272.59L235.66 272.59L235.66 298.1L210.15 298.1L210.15 272.59Z" />
	<path id="Layer" class="shp1" d="M245.02 272.59L270.53 272.59L270.53 298.1L245.02 298.1L245.02 272.59Z" />
	<path id="Layer" class="shp1" d="M279.88 272.59L305.39 272.59L305.39 298.1L279.88 298.1L279.88 272.59Z" />
	<path id="Layer" class="shp3" d="M314.75 272.59L340.26 272.59L340.26 298.1L314.75 298.1L314.75 272.59Z" />
	<path id="Layer" class="shp1" d="M349.61 272.59L375.12 272.59L375.12 298.1L349.61 298.1L349.61 272.59Z" />
	<path id="Layer" class="shp1" d="M384.48 272.59L409.99 272.59L409.99 298.1L384.48 298.1L384.48 272.59Z" />
	<path id="Layer" class="shp1" d="M419.35 272.59L444.86 272.59L444.86 298.1L419.35 298.1L419.35 272.59Z" />
	<path id="Layer" class="shp2" d="M454.21 272.59L479.72 272.59L479.72 298.1L454.21 298.1L454.21 272.59Z" />
	<path id="Layer" class="shp1" d="M489.08 272.59L514.59 272.59L514.59 298.1L489.08 298.1L489.08 272.59Z" />
	<path id="Layer" class="shp2" d="M523.94 272.59L549.45 272.59L549.45 298.1L523.94 298.1L523.94 272.59Z" />
	<path id="Layer" class="shp2" d="M558.81 272.59L584.32 272.59L584.32 298.1L558.81 298.1L558.81 272.59Z" />
	<path id="Layer" class="shp1" d="M593.68 272.59L619.19 272.59L619.19 298.1L593.68 298.1L593.68 272.59Z" />
	<path id="Layer" class="shp1" d="M628.54 272.59L654.05 272.59L654.05 298.1L628.54 298.1L628.54 272.59Z" />
	<path id="Layer" class="shp1" d="M663.41 272.59L688.92 272.59L688.92 298.1L663.41 298.1L663.41 272.59Z" />
	<path id="Layer" class="shp1" d="M698.28 272.59L723.79 272.59L723.79 298.1L698.28 298.1L698.28 272.59Z" />
	<path id="Layer" class="shp1" d="M733.14 272.59L758.65 272.59L758.65 298.1L733.14 298.1L733.14 272.59Z" />
	<path id="Layer" class="shp1" d="M768.01 272.59L793.52 272.59L793.52 298.1L768.01 298.1L768.01 272.59Z" />
	<path id="Layer" class="shp1" d="M802.87 272.59L828.38 272.59L828.38 298.1L802.87 298.1L802.87 272.59Z" />
	<path id="Layer" class="shp1" d="M837.74 272.59L863.25 272.59L863.25 298.1L837.74 298.1L837.74 272.59Z" />
	<path id="Layer" class="shp1" d="M872.61 272.59L898.12 272.59L898.12 298.1L872.61 298.1L872.61 272.59Z" />
	<path id="Layer" class="shp1" d="M907.47 272.59L932.98 272.59L932.98 298.1L907.47 298.1L907.47 272.59Z" />
	<path id="Layer" class="shp4" d="M942.34 272.59L967.85 272.59L967.85 298.1L942.34 298.1L942.34 272.59Z" />
	<path id="Layer" class="shp2" d="M977.2 272.59L1002.71 272.59L1002.71 298.1L977.2 298.1L977.2 272.59Z" />
	<path id="Layer" class="shp3" d="M105.55 304.91L131.06 304.91L131.06 330.42L105.55 330.42L105.55 304.91Z" />
	<path id="Layer" class="shp3" d="M140.42 304.91L165.93 304.91L165.93 330.42L140.42 330.42L140.42 304.91Z" />
	<path id="Layer" class="shp3" d="M175.28 304.91L200.79 304.91L200.79 330.42L175.28 330.42L175.28 304.91Z" />
	<path id="Layer" class="shp3" d="M210.15 304.91L235.66 304.91L235.66 330.42L210.15 330.42L210.15 304.91Z" />
	<path id="Layer" class="shp3" d="M245.02 304.91L270.53 304.91L270.53 330.42L245.02 330.42L245.02 304.91Z" />
	<path id="Layer" class="shp1" d="M279.88 304.91L305.39 304.91L305.39 330.42L279.88 330.42L279.88 304.91Z" />
	<path id="Layer" class="shp1" d="M314.75 304.91L340.26 304.91L340.26 330.42L314.75 330.42L314.75 304.91Z" />
	<path id="Layer" class="shp1" d="M349.61 304.91L375.12 304.91L375.12 330.42L349.61 330.42L349.61 304.91Z" />
	<path id="Layer" class="shp1" d="M384.48 304.91L409.99 304.91L409.99 330.42L384.48 330.42L384.48 304.91Z" />
	<path id="Layer" class="shp1" d="M419.35 304.91L444.86 304.91L444.86 330.42L419.35 330.42L419.35 304.91Z" />
	<path id="Layer" class="shp1" d="M454.21 304.91L479.72 304.91L479.72 330.42L454.21 330.42L454.21 304.91Z" />
	<path id="Layer" class="shp2" d="M489.08 304.91L514.59 304.91L514.59 330.42L489.08 330.42L489.08 304.91Z" />
	<path id="Layer" class="shp1" d="M523.94 304.91L549.45 304.91L549.45 330.42L523.94 330.42L523.94 304.91Z" />
	<path id="Layer" class="shp1" d="M558.81 304.91L584.32 304.91L584.32 330.42L558.81 330.42L558.81 304.91Z" />
	<path id="Layer" class="shp1" d="M593.68 304.91L619.19 304.91L619.19 330.42L593.68 330.42L593.68 304.91Z" />
	<path id="Layer" class="shp2" d="M628.54 304.91L654.05 304.91L654.05 330.42L628.54 330.42L628.54 304.91Z" />
	<path id="Layer" class="shp1" d="M663.41 304.91L688.92 304.91L688.92 330.42L663.41 330.42L663.41 304.91Z" />
	<path id="Layer" class="shp1" d="M698.28 304.91L723.79 304.91L723.79 330.42L698.28 330.42L698.28 304.91Z" />
	<path id="Layer" class="shp1" d="M733.14 304.91L758.65 304.91L758.65 330.42L733.14 330.42L733.14 304.91Z" />
	<path id="Layer" class="shp1" d="M768.01 304.91L793.52 304.91L793.52 330.42L768.01 330.42L768.01 304.91Z" />
	<path id="Layer" class="shp1" d="M802.87 304.91L828.38 304.91L828.38 330.42L802.87 330.42L802.87 304.91Z" />
	<path id="Layer" class="shp1" d="M837.74 304.91L863.25 304.91L863.25 330.42L837.74 330.42L837.74 304.91Z" />
	<path id="Layer" class="shp1" d="M872.61 304.91L898.12 304.91L898.12 330.42L872.61 330.42L872.61 304.91Z" />
	<path id="Layer" class="shp1" d="M907.47 304.91L932.98 304.91L932.98 330.42L907.47 330.42L907.47 304.91Z" />
	<path id="Layer" class="shp1" d="M942.34 304.91L967.85 304.91L967.85 330.42L942.34 330.42L942.34 304.91Z" />
	<path id="Layer" class="shp2" d="M977.2 304.91L1002.71 304.91L1002.71 330.42L977.2 330.42L977.2 304.91Z" />
	<path id="Layer" class="shp5" d="M734.52 398.76C715.24 398.76 699.65 383.17 699.65 363.89C699.65 344.61 715.24 329.02 734.52 329.02C753.8 329.02 769.39 344.61 769.39 363.89C769.39 383.17 753.8 398.76 734.52 398.76Z" />
	<path id="Layer" class="shp6" d="M732.71 319.53C736.19 334.72 739.14 350.02 741.57 365.43C742.3 370.01 742.95 374.84 741.29 379.17C739.9 382.78 737.07 385.6 734.85 388.76C732.63 391.92 730.95 395.97 732.3 399.59C733.65 403.21 737.59 405.19 741.35 406.21C752.11 409.11 763.58 407 774.29 403.86C775.5 403.55 776.7 403.19 777.89 402.8C779.07 402.4 780.24 401.96 781.4 401.49C782.55 401.01 783.69 400.49 784.81 399.93C785.93 399.37 787.02 398.78 788.1 398.14C792.64 395.26 796.36 391.26 799.78 387.14C815.39 368.21 825.61 345.49 835.23 322.91C832.15 323.19 829.05 323.1 825.99 322.65C822.93 322.2 819.93 321.39 817.06 320.24C814.2 319.08 811.47 317.59 808.96 315.79C806.44 314 804.15 311.91 802.12 309.57C798.18 304.94 795.29 298.49 797.51 292.83C791 296.4 783.27 296.64 776.26 299.08C775.17 299.49 774.1 299.93 773.03 300.4C771.97 300.86 770.91 301.35 769.87 301.87C768.82 302.38 767.79 302.92 766.78 303.48C765.76 304.04 764.75 304.62 763.76 305.23C758.97 308 754.21 310.82 749.48 313.69C744.07 316.95 739 319.85 732.71 319.53Z" />
	<path id="Layer" class="shp5" d="M805.64 345.71C799.53 357.6 791.58 369.03 780.23 376.11C768.88 383.19 753.6 385.11 742.23 378.11C736.63 374.69 732.39 369.49 727.5 365.11C722.61 360.73 716.5 356.98 709.93 357.55C702.69 358.18 697.02 363.83 692.17 369.24C684.81 377.46 677.7 386.03 672.49 395.76C662.49 414.46 660.12 436.32 660.56 457.52C661 478.72 664.07 499.81 664.14 521.01C664.24 547.09 659.82 572.96 655.35 598.65C696.45 593.59 737.6 604.65 778.79 608.84C805.15 611.55 831.71 611.49 858.21 611.42C862.87 611.42 867.83 611.3 871.71 608.72C872.3 608.29 872.86 607.82 873.4 607.33C873.93 606.83 874.44 606.3 874.91 605.74C875.38 605.18 875.81 604.59 876.21 603.98C876.61 603.37 876.98 602.73 877.3 602.08C880.96 595.33 882.43 587.63 883.45 580.02C886.04 560.8 886.12 541.34 886.19 521.94C886.37 474.94 886.54 427.77 880.57 381.14C879.1 369.67 877.22 358.14 872.82 347.41C868.42 336.68 861.24 326.81 851.2 321.06C844.75 317.36 829.8 310.92 822.2 314.65C813.67 318.81 809.73 337.75 805.64 345.71Z" />
	<path id="Layer" class="shp7" d="M808.68 478.43C807.13 449.43 800.82 418.48 814.25 392.74C817.55 386.42 805.71 378.53 809.37 372.41C810.48 370.55 811.53 368.65 812.51 366.71C813.49 364.77 814.41 362.8 815.25 360.8C816.09 358.8 816.86 356.77 817.56 354.71C818.25 352.66 818.88 350.58 819.43 348.48C820.19 345.59 820.8 342.53 820.08 339.63C818.75 334.34 813.52 331.19 809.08 327.97C804.18 324.41 801.66 313.56 800.08 307.69C798.5 301.82 812.65 308.89 818.34 306.8C826.24 303.91 836.28 305.73 844.16 308.66C848.56 310.28 853.34 310.42 858.03 310.54C867.14 310.78 876.28 311.01 885.32 309.89C889.38 309.38 893.45 308.61 897.53 308.84C907.94 309.43 916.99 316.55 923.15 324.97C929.31 333.39 933.23 343.2 938.28 352.32C942.49 359.92 947.51 367.1 951.1 375.01C954.28 382.01 956.29 389.53 958.28 397.01L963.41 416.2C963.63 416.88 963.83 417.58 963.99 418.28C964.16 418.98 964.29 419.69 964.4 420.4C964.51 421.11 964.58 421.83 964.63 422.55C964.67 423.27 964.69 423.99 964.67 424.71C964.41 427.78 963.05 430.64 961.67 433.37C960.37 435.9 959 438.39 957.56 440.85C956.13 443.3 954.63 445.72 953.08 448.1C951.52 450.48 949.9 452.82 948.22 455.11C946.54 457.41 944.8 459.66 943 461.86C932.21 475.09 919.11 487.02 912.7 502.86C910.2 509.03 908.81 515.59 907.54 522.13C906.26 528.67 905.07 535.22 903.98 541.79C902.88 548.37 901.88 554.95 900.97 561.55C900.06 568.15 899.25 574.76 898.53 581.38C897.8 588.01 897.17 594.64 896.64 601.28C893.72 599.93 890.77 598.66 887.78 597.47C884.79 596.29 881.77 595.18 878.72 594.16C875.67 593.14 872.59 592.21 869.49 591.36C866.39 590.51 863.26 589.75 860.12 589.07C858.55 588.73 856.98 588.42 855.4 588.13C853.83 587.83 852.24 587.56 850.66 587.31C849.08 587.06 847.49 586.83 845.9 586.63C844.31 586.42 842.72 586.23 841.12 586.07C835.53 585.49 828.32 586.59 823 585.07C814.1 582.54 813.12 567.49 811.77 559.61C809.61 547.06 809.18 534.29 809.1 521.61C809 507.19 809.45 492.8 808.68 478.43Z" />
	<path id="Layer" class="shp7" d="M613.23 424.2C617.44 448.2 622.08 472.27 631.23 494.82C631 495.04 630.77 495.24 630.54 495.44C629.73 496.13 628.89 496.78 628.01 497.44C625.96 498.88 623.71 500.1 622.01 501.98C621.85 502.16 621.7 502.35 621.55 502.54C621.41 502.73 621.27 502.93 621.15 503.14C621.02 503.34 620.91 503.55 620.8 503.77C620.69 503.98 620.6 504.21 620.51 504.43C620.35 504.78 620.23 505.15 620.15 505.52C620.07 505.9 620.03 506.28 620.03 506.66C620.03 507.05 620.07 507.43 620.15 507.81C620.23 508.18 620.35 508.55 620.51 508.9C615.74 511.01 610.2 510.36 604.85 510.16C600.24 509.99 595.77 510.16 592.07 512.69C586.93 516.23 585.38 523.03 584.55 529.21C584.24 531.46 583.98 533.72 583.76 535.98C583.55 538.08 583.37 540.19 583.24 542.3C583.13 544.05 583.04 545.8 582.97 547.55C582.91 549.3 582.87 551.05 582.85 552.8C582.84 554.55 582.85 556.3 582.88 558.05C582.91 559.8 582.97 561.55 583.05 563.3C583.1 564.58 583.17 565.86 583.26 567.14C566.92 566.75 552.03 558.23 537.94 549.95C534.72 548.06 531.4 546.07 529.31 542.95C528.83 542.19 528.42 541.39 528.08 540.56C527.74 539.73 527.47 538.88 527.27 538C527.07 537.13 526.95 536.24 526.91 535.34C526.86 534.45 526.89 533.55 527 532.66C527 532.15 527.09 531.66 527.16 531.14C527.27 530.4 527.4 529.66 527.56 528.93C527.71 528.19 527.88 527.46 528.07 526.74C528.26 526.01 528.47 525.29 528.7 524.58C528.93 523.87 529.18 523.16 529.45 522.46C530.55 519.48 531.78 516.56 533.14 513.69C534.5 510.82 535.98 508.02 537.59 505.28C539.2 502.55 540.93 499.88 542.77 497.3C544.62 494.72 546.57 492.22 548.64 489.81C552.22 485.63 556.25 481.54 557.92 476.29C558.65 474 558.92 471.57 559.66 469.29C562.98 459.41 574.96 454.74 579.06 445.15C580.06 442.86 580.52 440.35 581.76 438.15C582.04 437.69 582.34 437.25 582.66 436.82C582.97 436.39 583.31 435.98 583.67 435.58C584.02 435.18 584.4 434.8 584.79 434.44C585.18 434.07 585.59 433.73 586.01 433.4C586.74 432.79 587.5 432.2 588.25 431.61C595.28 426.1 602.05 420.29 608.56 414.16C609.77 413.02 610.97 411.87 612.16 410.7C612.12 411.83 612.11 412.96 612.14 414.09C612.16 415.22 612.22 416.35 612.31 417.48C612.4 418.61 612.52 419.73 612.67 420.85C612.83 421.97 613.01 423.09 613.23 424.2L613.23 424.2Z" />
	<path id="Layer" class="shp7" d="M714 353.22C712.56 354.74 711 356.17 709.47 357.59L709.06 357.96L707.44 359.46C706.71 360.09 706 360.75 705.31 361.44C704.63 362.13 703.97 362.84 703.34 363.57C702.71 364.31 702.1 365.07 701.53 365.85C700.95 366.63 700.41 367.43 699.89 368.25L699.72 368.53C694.62 377.66 696.51 388.9 697.93 399.27C698.37 402.5 698.75 405.74 699.07 408.98C699.39 412.22 699.65 415.47 699.84 418.73C700.04 421.98 700.18 425.24 700.25 428.49C700.33 431.75 700.35 435.01 700.3 438.27C700.04 456.27 697.92 474.15 697.88 492.13C697.88 496.21 697.97 500.28 698.15 504.36C698.44 510.99 698.94 517.61 699.54 524.23C700.19 531.49 700.97 538.74 701.7 545.99C702.28 551.6 702.83 557.2 703.29 562.8C703.52 565.7 703.74 568.59 703.92 571.49C704.13 574.89 704.3 578.3 704.4 581.7L704.4 581.7C704.47 583.86 704.51 586.01 704.51 588.17C704.51 589.4 704.51 590.62 704.51 591.84C704.51 594.18 704.45 596.51 704.32 598.84C704.19 601.83 703.98 604.83 703.71 607.84C703.4 611.11 702.85 614.68 700.55 616.98C700.41 617.12 700.26 617.25 700.11 617.38L696.87 616.98C691.29 616.31 685.7 615.79 680.09 615.4C674.48 615.02 668.87 614.77 663.25 614.67C657.63 614.57 652.01 614.62 646.4 614.8C640.78 614.98 635.17 615.31 629.57 615.78C630.06 612.4 630.51 609.03 630.95 605.64C631.15 604.04 631.35 602.43 631.54 600.82C631.76 598.98 631.97 597.14 632.17 595.3C632.4 593.3 632.61 591.3 632.81 589.3C633.33 584.15 633.79 578.99 634.18 573.83C634.76 566.3 635.2 558.76 635.5 551.21C635.65 547.6 635.76 543.99 635.84 540.38C635.95 535.9 636.01 531.42 636 526.93C636 522.57 635.96 518.2 635.89 513.83C635.89 512.39 635.83 510.95 635.71 509.52C635.69 509.2 635.66 508.88 635.63 508.56C635.6 508.24 635.56 507.92 635.51 507.6C635.47 507.28 635.42 506.96 635.36 506.64C635.31 506.32 635.25 506.01 635.18 505.69C634.99 504.96 634.79 504.24 634.57 503.52C634.36 502.8 634.12 502.09 633.87 501.38C633.62 500.67 633.35 499.97 633.07 499.28C632.79 498.58 632.49 497.89 632.18 497.21C631.96 496.69 631.75 496.21 631.54 495.66C631.42 495.39 631.31 495.11 631.2 494.84C636.96 489.71 641.06 482.84 645 476.08C651.39 465.19 657.93 453.82 659 441.24C660.07 428.66 653.82 414.53 641.8 410.69C638.53 409.69 635.07 409.41 631.7 408.82C628.52 408.26 621.89 406.99 618.21 404.71C616.21 406.76 614.21 408.78 612.21 410.76C612.24 410.01 612.31 409.26 612.42 408.51C612.52 407.76 612.67 407.02 612.85 406.29C613.03 405.56 613.25 404.84 613.51 404.13C613.76 403.42 614.05 402.73 614.38 402.05L615.8 402.12C615.77 402.04 615.75 401.96 615.72 401.88C615.7 401.79 615.69 401.71 615.67 401.63C615.66 401.54 615.65 401.46 615.64 401.37C615.64 401.29 615.64 401.2 615.64 401.12C615.64 400.05 616.38 398.84 617.96 397.5C622.67 393.5 630.08 392.61 633.05 387.2C634.29 384.95 634.5 382.27 635.5 379.91C638.37 373.18 646.61 370.7 651.57 365.32C656.53 359.94 657.77 352.32 661.78 346.32C662.52 345.23 663.34 344.2 664.23 343.22C665.12 342.24 666.07 341.33 667.08 340.49C668.1 339.64 669.17 338.87 670.29 338.17C671.41 337.47 672.57 336.86 673.78 336.32C674.18 336.13 674.59 335.94 675 335.77C683.3 332.22 693.16 331.41 701.76 331.43C705.1 331.43 713.76 331.53 718 333.22C718.17 333.28 718.34 333.35 718.5 333.43C718.67 333.51 718.83 333.59 718.98 333.69C719.14 333.78 719.29 333.89 719.43 334C719.58 334.11 719.72 334.23 719.85 334.35C724.37 339.27 717.34 349.66 714 353.22Z" />
	<path id="Layer" class="shp7" d="M614.72 401.35C618.57 400.19 622.53 399.42 626.54 399.04C630.54 398.66 634.58 398.68 638.58 399.09C642.58 399.51 646.53 400.32 650.37 401.52C654.22 402.72 657.93 404.29 661.46 406.22C668.66 410.22 675.12 415.8 679.08 423C685.03 433.8 684.77 446.82 684.35 459.15C684.14 465.32 683.87 471.71 681.15 477.25C678 483.66 672.06 488.06 666 491.66C665.05 492.26 664.08 492.83 663.09 493.36C662.1 493.88 661.08 494.37 660.05 494.82C659.02 495.26 657.97 495.67 656.91 496.03C655.85 496.39 654.77 496.71 653.68 496.99C646.96 498.45 639.98 497.21 633.21 495.99C625.85 494.63 617.95 492.99 612.84 487.51C609.84 484.33 608.2 480.2 606.58 476.16C604.25 470.33 601.92 464.5 599.58 458.68C595.53 448.57 594.16 440.16 599.51 430.31C601.94 425.82 604.91 421.62 607.31 417.1C608.51 414.8 612.81 401.94 614.72 401.35Z" />
	<path id="Layer" class="shp8" d="M1035 574.22L1035 604.12C1029.89 606.24 1024.67 608.11 1019.38 609.72C1014.08 611.33 1008.7 612.67 1003.27 613.74C997.84 614.82 992.36 615.62 986.85 616.15C981.34 616.68 975.81 616.94 970.27 616.92L700.58 616.92C700.44 617.06 700.29 617.19 700.14 617.32L696.9 616.92L217.17 616.92C176.92 616.92 139.62 606.06 109.03 587.56L109.03 541.91L339.75 515.28L339.93 515.28L474.29 526.66L509.06 529.66L527.12 531.19L564.5 534.36L583.73 535.99L611.73 538.37L615.67 538.7L635.85 540.41L663.23 542.66L701.73 545.92L765.91 551.37L811.06 555.2L885.2 561.49L899.3 562.68L900.82 562.81L902.14 562.92L920.76 564.5L941.2 566.24L943.57 566.44L1035 574.22Z" />
	<path id="Layer" class="shp9" d="M764 573.12L474.86 523.77L463.65 580.46L596.19 596.33L637 601.44L749.26 579.33L764 573.12L764 573.12Z" />
	<path id="Layer" class="shp9" d="M614.33 598.6L759.19 571.37C759.91 571.23 760.66 571.25 761.38 571.44C762.09 571.62 762.76 571.96 763.32 572.43C763.89 572.9 764.35 573.5 764.66 574.16C764.97 574.83 765.13 575.56 765.13 576.3L765.13 576.3C765.13 576.88 765.03 577.46 764.84 578C764.64 578.55 764.35 579.06 763.98 579.51C763.61 579.95 763.16 580.33 762.66 580.63C762.16 580.92 761.61 581.12 761.04 581.23L619.57 607.72L614.33 598.6Z" />
	<path id="Layer" class="shp6" d="M677.17 512.97C681.68 512.55 686.25 511.84 690.31 509.84C695.31 507.35 699.2 503.06 703.83 499.9C714.01 492.9 727.63 491.96 739.3 495.98C750.97 500 760.71 508.61 767.53 518.89C772.06 525.74 775.46 534.48 772.26 542.04C771.99 542.62 771.69 543.19 771.38 543.74C771.07 544.3 770.75 544.85 770.4 545.39C770.06 545.93 769.7 546.45 769.32 546.97C768.94 547.49 768.55 547.99 768.14 548.48L759.8 559.38C759.4 559.95 758.99 560.51 758.55 561.05C758.12 561.59 757.66 562.12 757.19 562.63C756.72 563.14 756.22 563.63 755.72 564.1C755.21 564.58 754.68 565.03 754.14 565.47C751.02 567.74 747.14 568.67 743.32 569.23C733.17 570.71 722.84 569.87 712.61 570.55C695.04 571.72 677.88 577.38 660.27 577.19C650.15 577.08 640.16 575.04 630.27 573L586.5 564C578.88 562.44 570.27 560.16 566.68 553.25C565.07 550.14 564.77 546.54 564.58 543.04C564.06 533.4 564.58 522.68 571.26 515.73C577.54 509.21 587.47 507.15 594.97 502.33C604.15 496.42 607.18 498.33 616.86 502.77C621.56 504.9 626.39 506.72 631.32 508.22C636.25 509.73 641.27 510.92 646.35 511.78C651.44 512.64 656.57 513.17 661.72 513.37C666.88 513.57 672.04 513.43 677.17 512.97Z" />
	<path id="Layer" class="shp10" d="M677.17 512.97C681.68 512.55 686.25 511.84 690.31 509.84C695.31 507.35 699.2 503.06 703.83 499.9C714.01 492.9 727.63 491.96 739.3 495.98C750.97 500 760.71 508.61 767.53 518.89C772.06 525.74 775.46 534.48 772.26 542.04C771.99 542.62 771.69 543.19 771.38 543.74C771.07 544.3 770.75 544.85 770.4 545.39C770.06 545.93 769.7 546.45 769.32 546.97C768.94 547.49 768.55 547.99 768.14 548.48L759.8 559.38C759.4 559.95 758.99 560.51 758.55 561.05C758.12 561.59 757.66 562.12 757.19 562.63C756.72 563.14 756.22 563.63 755.72 564.1C755.21 564.58 754.68 565.03 754.14 565.47C751.02 567.74 747.14 568.67 743.32 569.23C733.17 570.71 722.84 569.87 712.61 570.55C695.04 571.72 677.88 577.38 660.27 577.19C650.15 577.08 640.16 575.04 630.27 573L586.5 564C578.88 562.44 570.27 560.16 566.68 553.25C565.07 550.14 564.77 546.54 564.58 543.04C564.06 533.4 564.58 522.68 571.26 515.73C577.54 509.21 587.47 507.15 594.97 502.33C604.15 496.42 607.18 498.33 616.86 502.77C621.56 504.9 626.39 506.72 631.32 508.22C636.25 509.73 641.27 510.92 646.35 511.78C651.44 512.64 656.57 513.17 661.72 513.37C666.88 513.57 672.04 513.43 677.17 512.97Z" />
	<path id="Layer" class="shp6" d="M852.94 499.26C840.66 504.01 828.31 508.78 815.45 511.61C793.89 516.36 771.33 515.61 749.94 521.04C738.64 523.92 727.41 528.56 715.8 527.62C710.61 527.2 705.6 525.62 700.55 524.42C672.18 517.42 639.93 519.69 616.89 537.69C609.01 543.84 602.56 551.51 596.71 559.69C595.46 561.46 594.61 563.48 594.23 565.61C593.85 567.74 593.95 569.93 594.51 572.02C595.08 574.11 596.1 576.05 597.5 577.7C598.9 579.35 600.65 580.67 602.62 581.57C604.85 582.6 607.13 583.53 609.45 584.36C611.76 585.2 614.11 585.93 616.49 586.57C618.86 587.2 621.27 587.73 623.69 588.16C626.11 588.59 628.55 588.92 631 589.14C644.13 590.3 657.32 588.44 670.38 586.58C689.76 583.83 709.15 581.07 728.48 577.98C735.42 576.87 742.36 575.72 749.34 574.84C799.57 568.49 850.71 576.21 901.07 570.91C906.16 570.37 911.34 569.67 915.97 567.5C927.69 562 933.49 547.5 931.07 534.76C928.65 522.02 919.31 511.43 908.07 504.93C898.65 499.46 888.49 497.25 878 494.93C868.26 492.66 862.32 495.66 852.94 499.26Z" />
	<path id="Layer" class="shp11" d="M960.67 423.1C966.21 430.36 967.39 440.1 966.79 449.19C966.19 458.28 964.03 467.27 963.71 476.4C963.27 488.92 966.29 501.4 965.78 513.88C965.42 522.61 963.35 531.17 960.9 539.55C958.01 549.44 953.83 560.07 944.7 564.82C932.58 571.13 907.16 567.58 894.41 572.52C895.57 565.29 906.69 554.82 907.85 547.59C908.65 542.59 909.46 537.45 908.6 532.44C907.5 526.05 903.75 520.38 899.3 515.66C892.22 508.15 882.98 502.5 872.83 500.66C862.68 498.82 837.83 500.33 829.71 506.74C828.71 500.12 847.31 493.74 853.85 492.31C857.11 491.58 860.85 491.99 863.46 489.92C868.46 486 864.83 478.19 865.07 471.92C865.26 466.92 868.18 462.34 868.77 457.34C869.77 449.34 864.55 441.19 866.6 433.34C867.36 430.44 869.05 427.89 870.22 425.13C873.78 416.68 872.22 407.04 870.32 398.06C869.14 392.42 867.99 386.06 871.13 381.25C874.04 376.76 882.3 392.75 887.59 392.01C905.06 389.56 920.87 376.61 934.98 387.21C942.17 392.61 943.11 398.21 945.98 405.92C948.77 413.26 956 417.02 960.67 423.1Z" />
	<path id="Layer" class="shp7" d="M963.67 423.1C969.21 430.36 970.39 440.1 969.79 449.19C969.19 458.28 967.03 467.27 966.71 476.4C966.27 488.92 969.29 501.4 968.78 513.88C968.42 522.61 966.35 531.17 963.9 539.55C961.01 549.44 956.83 560.07 947.7 564.82C935.58 571.13 910.16 567.58 897.41 572.52C898.57 565.29 909.69 554.82 910.85 547.59C911.65 542.59 912.46 537.45 911.6 532.44C910.5 526.05 906.75 520.38 902.3 515.66C895.22 508.15 885.98 502.5 875.83 500.66C865.68 498.82 840.83 500.33 832.71 506.74C831.71 500.12 850.31 493.74 856.85 492.31C860.11 491.58 863.85 491.99 866.46 489.92C871.46 486 867.83 478.19 868.07 471.92C868.26 466.92 871.18 462.34 871.77 457.34C872.77 449.34 867.55 441.19 869.6 433.34C870.36 430.44 872.05 427.89 873.22 425.13C876.78 416.68 875.22 407.04 873.32 398.06C872.14 392.42 870.99 386.06 874.13 381.25C877.04 376.76 882.73 375.06 888.02 374.31C892.4 373.72 896.82 373.55 901.23 373.81C905.64 374.07 910.01 374.76 914.28 375.86C918.56 376.97 922.72 378.48 926.7 380.38C930.69 382.29 934.48 384.57 938.02 387.21C945.21 392.61 946.15 398.21 949.02 405.92C951.77 413.26 959 417.02 963.67 423.1Z" />
	<path id="Layer" class="shp9" d="M302 375.72L356.37 576.66C356.7 577.88 357.22 579.05 357.9 580.12C358.58 581.19 359.42 582.15 360.39 582.97C361.36 583.79 362.44 584.45 363.61 584.94C364.78 585.44 366.02 585.75 367.28 585.87L612 609.38C613.99 609.57 616.01 609.28 617.87 608.54C619.73 607.79 621.38 606.61 622.69 605.1C624 603.58 624.93 601.77 625.4 599.83C625.86 597.88 625.86 595.85 625.38 593.9L565.84 351.52C565.49 350.09 564.89 348.73 564.07 347.51C563.24 346.29 562.21 345.23 561.02 344.36C559.83 343.5 558.5 342.85 557.08 342.45C555.66 342.05 554.19 341.9 552.72 342.01L313.13 359.93C311.29 360.07 309.51 360.62 307.9 361.53C306.3 362.44 304.91 363.7 303.85 365.21C302.79 366.72 302.07 368.44 301.75 370.26C301.43 372.07 301.52 373.94 302 375.72Z" />
	<path id="Layer" class="shp12" d="M787.11 414.93C772.23 414.93 760.21 402.75 760.21 387.68C760.21 372.61 772.23 360.43 787.11 360.43C801.99 360.43 814.01 372.61 814.01 387.68C814.01 402.75 801.99 414.93 787.11 414.93Z" />
	<path id="Layer" class="shp12" d="M809.2 337.97C809.2 337.97 814.87 354.83 798.14 361.92L796 365.66L806.48 376C806.48 376 819.4 352.43 818 344.06C818 344.06 816 335.56 809.2 337.97Z" />
	<path id="Layer" class="shp2" d="M790.2 414.93C775.86 414.93 764.26 403.33 764.26 388.99C764.26 374.65 775.86 363.05 790.2 363.05C804.54 363.05 816.14 374.65 816.14 388.99C816.14 403.33 804.54 414.93 790.2 414.93Z" />
	<path id="Layer" class="shp2" d="M818.13 347.89L814.01 341.09L808.01 340.24C809.29 317.85 803.48 311.18 803.48 311.18L802.13 311.05L796.25 310.48L785.19 299L785.19 295.74C800.73 297.59 809.32 304.97 813.96 313.62C822.16 328.8 818.13 347.89 818.13 347.89Z" />
	<path id="Layer" class="shp13" d="M802.18 306.93L802.18 311.05L796.3 310.48L785.24 299C785.24 299 802.35 302.83 802.18 306.93Z" />
	<path id="Layer" class="shp13" d="M818.13 347.89L814.01 341.09L814.01 313.66C822.16 328.8 818.13 347.89 818.13 347.89Z" />
	<path id="Layer" class="shp12" d="M742.27 399.65C735.36 403.64 723.89 396.68 716.61 384.07C709.33 371.47 709.04 358.06 715.95 354.07C722.86 350.08 734.33 357.04 741.6 369.64C748.88 382.25 749.18 395.66 742.27 399.65Z" />
	<path id="Layer" class="shp2" d="M733 374.66C740.27 387.25 749.19 395.66 742.29 399.66C735.39 403.66 715.29 401.66 708.02 389.06C700.75 376.46 707.35 359.06 714.25 355.06C721.15 351.06 725.72 362.04 733 374.66Z" />
	<path id="Layer" class="shp11" d="M797.73 283.96C797.73 324.19 770.2 362.96 729.97 362.96C710.65 362.96 692.12 355.28 678.46 341.62C664.8 327.96 657.12 309.43 657.12 290.11C657.12 270.79 664.8 252.26 678.46 238.6C692.12 224.94 710.65 217.26 729.97 217.26C770.2 217.3 797.73 243.72 797.73 283.96Z" />
	<path id="Layer" class="shp6" d="M729.97 361C689.68 361 657.12 328.44 657.12 288.15C657.12 247.86 689.68 215.3 729.97 215.3C770.26 215.3 802.82 247.86 802.82 288.15C802.82 328.44 770.26 361 729.97 361Z" />
	<path id="Layer" class="shp14" d="M723.57 255.87C732.24 259.06 737.37 268.02 745.15 273.01C756.15 280.01 770.47 278.2 783.03 274.74C790.03 272.83 797.35 270.5 804.24 272.62C804.49 272.73 804.75 272.83 805.02 272.9C805.28 272.98 805.55 273.03 805.82 273.07C806.1 273.11 806.37 273.13 806.65 273.13C806.92 273.13 807.2 273.12 807.47 273.08C808.97 272.65 809.71 270.99 810.2 269.51C818.72 244.11 814.89 215.34 802.03 191.84C798.71 185.78 794.73 179.92 789.25 175.71C784.93 172.4 779.85 170.23 774.73 168.38C772.39 167.54 770.03 166.76 767.66 166.04C765.28 165.32 762.88 164.67 760.47 164.07C758.06 163.48 755.64 162.94 753.2 162.47C750.76 162 748.31 161.59 745.85 161.25C745.42 161.17 744.98 161.11 744.54 161.06C744.1 161.02 743.66 160.98 743.22 160.97C742.78 160.96 742.34 160.96 741.9 160.98C741.46 160.99 741.02 161.03 740.58 161.08C738.17 161.47 736.01 162.77 733.86 163.93C731.57 165.16 729.21 166.26 726.79 167.22C724.37 168.18 721.9 169 719.39 169.69C716.88 170.37 714.33 170.91 711.76 171.3C709.19 171.69 706.6 171.94 704 172.04C690 172.57 674 169.27 663.21 178.25C650.21 189.02 653.45 210.03 645.02 224.65C639.44 234.32 628.68 241.34 626.91 252.35C626.8 253.19 626.72 254.03 626.69 254.88C626.66 255.72 626.67 256.57 626.72 257.42C626.78 258.26 626.87 259.1 627.01 259.94C627.14 260.77 627.32 261.6 627.54 262.42C631.66 279.36 648.06 292.48 665.54 292.79C666.21 292.84 666.88 292.85 667.54 292.8C668.21 292.76 668.88 292.67 669.53 292.54C670.19 292.4 670.83 292.22 671.46 292C672.09 291.78 672.71 291.51 673.3 291.2C673.69 290.93 674.07 290.65 674.44 290.35C674.8 290.06 675.16 289.75 675.5 289.42C675.84 289.09 676.17 288.76 676.49 288.4C676.8 288.05 677.1 287.69 677.39 287.31C688.84 273.75 701.94 247.91 723.57 255.87Z" />
	<path id="Layer" class="shp11" d="M810.2 262.14C809.71 263.62 808.97 265.28 807.47 265.71C807.2 265.75 806.92 265.76 806.65 265.76C806.37 265.76 806.1 265.74 805.82 265.7C805.55 265.66 805.28 265.61 805.02 265.53C804.75 265.46 804.49 265.36 804.24 265.25C797.35 263.13 789.99 265.46 783.04 267.37C770.47 270.83 756.12 272.68 745.16 265.64C737.37 260.64 732.25 251.64 723.57 248.5C701.94 240.5 688.84 266.38 677.36 279.94C677.07 280.32 676.77 280.68 676.46 281.03C676.14 281.39 675.81 281.72 675.47 282.05C675.13 282.38 674.77 282.69 674.41 282.98C674.04 283.28 673.66 283.56 673.27 283.83C672.68 284.14 672.06 284.41 671.43 284.63C670.8 284.85 670.16 285.03 669.5 285.17C668.85 285.3 668.18 285.39 667.51 285.43C666.85 285.48 666.18 285.47 665.51 285.42C648.09 285.11 631.68 271.99 627.51 255.05C627.28 254.05 627.08 253.05 626.93 252.05C626.93 252.14 626.93 252.22 626.88 252.31C626.77 253.15 626.69 253.99 626.66 254.84C626.63 255.68 626.64 256.53 626.69 257.38C626.75 258.22 626.84 259.06 626.98 259.9C627.11 260.73 627.29 261.56 627.51 262.38C631.63 279.32 648.04 292.44 665.51 292.75C666.18 292.8 666.85 292.81 667.51 292.76C668.18 292.72 668.85 292.63 669.5 292.5C670.16 292.36 670.8 292.18 671.43 291.96C672.06 291.74 672.68 291.47 673.27 291.16C673.66 290.89 674.04 290.61 674.41 290.31C674.77 290.02 675.13 289.71 675.47 289.38C675.81 289.05 676.14 288.72 676.46 288.36C676.77 288.01 677.07 287.65 677.36 287.27C688.84 273.71 701.94 247.87 723.57 255.83C732.25 259.02 737.37 267.98 745.16 272.97C756.16 279.97 770.47 278.16 783.04 274.7C790.04 272.79 797.35 270.46 804.24 272.58C804.49 272.69 804.75 272.79 805.02 272.86C805.28 272.94 805.55 272.99 805.82 273.03C806.1 273.07 806.37 273.09 806.65 273.09C806.92 273.09 807.2 273.08 807.47 273.04C808.97 272.61 809.71 270.95 810.2 269.47C811.06 266.88 811.8 264.25 812.41 261.59C813.03 258.93 813.53 256.25 813.91 253.54C814.28 250.84 814.53 248.12 814.66 245.39C814.79 242.67 814.8 239.94 814.68 237.21C814.61 239.33 814.46 241.44 814.23 243.55C814.01 245.65 813.71 247.75 813.33 249.84C812.96 251.92 812.51 253.99 811.99 256.04C811.46 258.1 810.87 260.13 810.2 262.14Z" />
</svg>